<?xml version="1.0" encoding="UTF-8"?>
<svg width="43px" height="36px" viewBox="0 0 43 36" version="1.1" xmlns="http://www.w3.org/2000/svg" xmlns:xlink="http://www.w3.org/1999/xlink">
    <!-- Generator: Sketch 43.2 (39069) - http://www.bohemiancoding.com/sketch -->
    <title>Page 1</title>
    <desc>Created with Sketch.</desc>
    <defs>
        <polygon id="path-1" points="3.94082492 0.552 0.823221584 0.552 0.823221584 7.43143374 3.94082492 7.43143374 3.94082492 0.552"></polygon>
        <polygon id="path-3" points="0 0.70795 0 36 35.29235 36 35.29235 0.70795 2.71050543e-20 0.70795"></polygon>
    </defs>
    <g id="V3" stroke="none" stroke-width="1" fill="none" fill-rule="evenodd">
        <g id="1-Homepage" transform="translate(-291.000000, -1134.000000)">
            <g id="Page-1" transform="translate(291.000000, 1133.000000)">
                <path d="M30.4015,11.2277 C30.4595,11.3967 30.6755,11.4477 30.8015,11.3207 L31.5085,10.6137 C32.3555,9.7677 32.6465,8.5137 32.2605,7.3807 L31.3385,4.6767 C31.2805,4.5067 31.0645,4.4567 30.9375,4.5837 L30.2305,5.2907 C29.3835,6.1367 29.0925,7.3907 29.4785,8.5227 L30.4015,11.2277 Z" id="Fill-1" fill="#352824"></path>
                <g id="Group-5" transform="translate(32.000000, 0.447800)">
                    <mask id="mask-2" fill="white">
                        <use xlink:href="#path-1"></use>
                    </mask>
                    <g id="Clip-4"></g>
                    <path d="M1.9142,7.2672 C1.9722,7.4372 2.1872,7.4872 2.3142,7.3602 L3.0212,6.6532 C3.8682,5.8072 4.1592,4.5532 3.7722,3.4202 L2.8512,0.7162 C2.7932,0.5462 2.5762,0.4962 2.4502,0.6222 L1.7432,1.3302 C0.8962,2.1762 0.6052,3.4302 0.9912,4.5632 L1.9142,7.2672 Z" id="Fill-3" fill="#352824" mask="url(#mask-2)"></path>
                </g>
                <path d="M31.9806,12.8058 C31.8106,12.7478 31.7596,12.5328 31.8866,12.4058 L32.5936,11.6988 C33.4396,10.8518 34.6936,10.5608 35.8266,10.9478 L38.5306,11.8688 C38.7006,11.9268 38.7516,12.1438 38.6246,12.2698 L37.9166,12.9768 C37.0706,13.8238 35.8176,14.1148 34.6846,13.7288 L31.9806,12.8058 Z" id="Fill-6" fill="#352824"></path>
                <path d="M35.4933,9.2931 C35.3233,9.2351 35.2723,9.0201 35.3993,8.8931 L36.1063,8.1861 C36.9533,7.3401 38.2063,7.0481 39.3393,7.4351 L42.0433,8.3561 C42.2133,8.4141 42.2633,8.6311 42.1373,8.7581 L41.4303,9.4651 C40.5833,10.3111 39.3303,10.6031 38.1973,10.2161 L35.4933,9.2931 Z" id="Fill-8" fill="#352824"></path>
                <path d="M30.4015,11.2277 C30.4595,11.3977 30.6745,11.4477 30.8015,11.3207 L31.5085,10.6137 C32.3555,9.7677 32.6465,8.5137 32.2595,7.3807 L31.3385,4.6767 C31.2805,4.5067 31.0635,4.4567 30.9375,4.5827 L30.2305,5.2907 C29.3835,6.1367 29.0925,7.3907 29.4785,8.5227 L30.4015,11.2277 Z" id="Fill-10" fill="#352824"></path>
                <path d="M31.9806,12.8058 C31.8106,12.7478 31.7596,12.5328 31.8866,12.4058 L32.5936,11.6988 C33.4406,10.8528 34.6936,10.5608 35.8266,10.9478 L38.5306,11.8688 C38.7006,11.9268 38.7516,12.1438 38.6246,12.2708 L37.9176,12.9778 C37.0706,13.8238 35.8176,14.1148 34.6846,13.7288 L31.9806,12.8058 Z" id="Fill-12" fill="#352824"></path>
                <path d="M18.3126,23.422 L7.7396,33.995 C7.3336,34.402 7.3336,35.062 7.7396,35.468 C8.1466,35.875 8.8056,35.875 9.2116,35.468 L19.7856,24.895 L18.3126,23.422 Z" id="Fill-14" fill="#352824"></path>
                <path d="M26.8888,14.7404 C26.8988,14.7664 26.9278,14.7694 26.9448,14.7904 L22.2668,19.4684 L23.7398,20.9414 L28.4168,16.2624 C28.4378,16.2794 28.4408,16.3094 28.4678,16.3184 L31.1718,17.2414 C32.3048,17.6274 33.5578,17.3364 34.4048,16.4894 L35.1118,15.7824 C35.2388,15.6564 35.1878,15.4394 35.0188,15.3824 L32.3138,14.4594 C32.2898,14.4514 32.2658,14.4534 32.2428,14.4454 L30.6428,13.9074 C30.0278,13.7004 29.3468,13.8604 28.8878,14.3194 C29.3468,13.8604 29.5068,13.1804 29.2998,12.5644 L28.7618,10.9664 C28.7538,10.9424 28.7558,10.9174 28.7478,10.8934 L27.8258,8.1894 C27.7678,8.0194 27.5518,7.9694 27.4248,8.0954 L26.7178,8.8034 C25.8708,9.6494 25.5798,10.9034 25.9668,12.0354 L26.8888,14.7404 Z" id="Fill-16" fill="#352824"></path>
                <g id="Group-20" transform="translate(0.000000, 0.447800)">
                    <mask id="mask-4" fill="white">
                        <use xlink:href="#path-3"></use>
                    </mask>
                    <g id="Clip-19"></g>
                    <path d="M5.7296,1.1422 L0.4346,6.4372 C-0.1454,7.0162 -0.1454,7.9562 0.4346,8.5372 L7.1976,15.2982 C7.6256,15.7282 8.3226,15.7282 8.7506,15.2982 L10.1546,13.8952 C10.5836,13.4662 11.2796,13.4662 11.7086,13.8952 L33.5066,35.6942 C33.9156,36.1022 34.5776,36.1022 34.9856,35.6942 C35.3946,35.2852 35.3946,34.6222 34.9856,34.2142 L13.1876,12.4162 C12.7586,11.9872 12.7586,11.2912 13.1876,10.8622 L14.5906,9.4592 C15.0196,9.0302 15.0196,8.3332 14.5906,7.9052 L7.8286,1.1422 C7.2496,0.5632 6.3086,0.5632 5.7296,1.1422" id="Fill-18" fill="#352824" mask="url(#mask-4)"></path>
                </g>
                <path d="M37.1085,6.0988 C41.6045,5.9348 41.6245,1.5828 41.6245,1.5828 C41.6245,1.5828 37.2725,1.6028 37.1085,6.0988" id="Fill-21" fill="#352824"></path>
            </g>
        </g>
    </g>
</svg>