<?xml version="1.0" encoding="UTF-8"?>
<svg width="135px" height="93px" viewBox="0 0 135 93" version="1.1" xmlns="http://www.w3.org/2000/svg" xmlns:xlink="http://www.w3.org/1999/xlink">
    <!-- Generator: Sketch 43.2 (39069) - http://www.bohemiancoding.com/sketch -->
    <title>Page 1</title>
    <desc>Created with Sketch.</desc>
    <defs>
        <polygon id="path-1" points="0 92.9496439 135 92.9496439 135 0 0 0"></polygon>
    </defs>
    <g id="V3" stroke="none" stroke-width="1" fill="none" fill-rule="evenodd">
        <g id="1-Homepage" transform="translate(-445.000000, -58.000000)">
            <g id="Page-1" transform="translate(445.000000, 58.000000)">
                <path d="M89.8234916,38.1293422 C90.0052224,38.1919471 90.0591773,38.4239934 89.9230485,38.5607715 L89.1654231,39.3222373 C88.258801,40.2329568 86.9155736,40.546208 85.7026054,40.13043 L83.0615268,39.2258349 L81.9361505,40.3568056 C82.4903729,40.2440715 83.0689766,40.2608568 83.6261338,40.4518471 L86.523893,41.4446788 C86.7056237,41.5070568 86.7598043,41.7395568 86.6234498,41.876108 L85.8662759,42.6373471 C84.9596538,43.5478398 83.6162007,43.8619983 82.4030067,43.4457666 L79.7623796,42.5409446 L78.6363261,43.6721422 C79.1905485,43.5591812 79.7693779,43.5757398 80.3269866,43.7669568 L83.2242943,44.7595617 C83.4062508,44.8219398 83.4602057,45.0546666 83.3243027,45.190991 L82.5666773,45.95223 C81.6600552,46.8629495 80.3170535,47.1768812 79.103408,46.7611032 L76.4627809,45.8560544 L76.4363679,45.8825934 L70.2557157,52.0927251 L68.6777057,50.5071885 L74.8689682,44.2863959 L73.9521873,41.5846324 C73.5383829,40.3658788 73.8501472,39.0162446 74.7567692,38.1055251 L75.5143946,37.3440593 C75.6505234,37.207508 75.8814682,37.2614934 75.9440017,37.444091 L76.9321204,40.3558983 C77.2012174,41.1484398 77.1341689,41.9854398 76.8260167,42.731708 L76.6113261,43.3144324 C76.4801639,43.6217861 76.3995702,43.9477398 76.3729314,44.2807251 C76.3632241,44.4007178 76.3237174,44.5086885 76.4119866,44.5964715 C76.4923545,44.5159471 76.5729482,44.4347422 76.6535418,44.3542178 C77.0714097,43.9343568 77.4890518,43.514269 77.9069197,43.0946349 C78.5306739,42.467452 79.1546538,41.8409495 79.7788595,41.2142202 C80.4369281,40.5530129 81.0949967,39.8918056 81.7530652,39.2303715 C82.2743278,38.7068495 82.794913,38.1835544 83.3157241,37.6602593 L83.9518946,37.0210544 C84.4045284,36.5370007 84.6862676,35.916169 84.7332241,35.2526934 C84.7379649,34.9938812 84.7517358,34.7797544 84.7835669,34.5515641 C84.9853896,33.1758446 85.9270033,31.3004202 89.6029314,31.0676934 C89.4216522,33.9588593 88.2371288,35.1662715 87.090306,35.650552 C87.062087,35.6639349 86.5017692,35.905508 86.5017692,35.905508 C86.2785,36.0016837 86.0308495,36.0595251 85.8276722,36.1976641 C85.6041773,36.3496398 85.5161338,36.6311349 85.3660084,36.8450349 C85.351786,36.8652227 85.2506488,37.0339837 85.2472625,37.0337568 C85.3842943,37.0382934 85.5362258,36.9906593 85.6755151,36.980452 C85.8166104,36.9700178 85.9583829,36.9682032 86.0994783,36.9761422 C86.3805401,36.9917934 86.658893,37.045552 86.9255067,37.1365105 L89.8234916,38.1293422 Z" id="Fill-1" fill="#FFF8EB"></path>
                <path d="M53.2978645,65.9604541 C52.8621622,66.3984615 52.8621622,67.1084371 53.2978645,67.5459907 C53.7337926,67.9837712 54.440398,67.9837712 54.8758746,67.5459907 L66.3982826,55.968398 L64.8202726,54.3828615 L53.2978645,65.9604541 Z" id="Fill-3" fill="#352824"></path>
                <path d="M78.239995,41.1812393 C78.3018512,41.3638368 78.5332475,41.418049 78.6689247,41.281271 L79.4265502,40.5202588 C80.3331722,39.6095393 80.645388,38.2599051 80.2315836,37.0406978 L79.2430134,34.1291173 C79.1811572,33.9465198 78.9497609,33.8923076 78.8140836,34.0290856 L78.0566839,34.7905515 C77.1498361,35.7010441 76.8376204,37.0506783 77.2514247,38.2698856 L78.239995,41.1812393 Z" id="Fill-5" fill="#352824"></path>
                <path d="M81.5392099,37.865948 C81.6010661,38.0487724 81.8326881,38.1027578 81.9681396,37.9664334 L82.7259908,37.2051944 C83.6323871,36.294248 83.9446028,34.9448407 83.5307985,33.7254066 L82.5426798,30.8142798 C82.4808236,30.6312285 82.2492015,30.5772432 82.1132985,30.7135676 L81.3558988,31.4748066 C80.4495025,32.3857529 80.1368353,33.7353871 80.5506396,34.9548212 L81.5392099,37.865948 Z" id="Fill-7" fill="#352824"></path>
                <path d="M64.8340661,54.3829522 L53.311658,65.9605449 C52.8759557,66.3983254 52.8759557,67.108301 53.311658,67.5460815 C53.7478119,67.9836351 54.4541915,67.9836351 54.8898938,67.5460815 L66.4120761,55.9684888 L64.8340661,54.3829522 Z" id="Fill-9" fill="#FFF8EB"></path>
                <path d="M78.2538788,41.1812393 C78.3157349,41.3638368 78.5471313,41.418049 78.6828085,41.281271 L79.4404339,40.5202588 C80.347056,39.6095393 80.6592717,38.2599051 80.2454674,37.0406978 L79.2568972,34.1291173 C79.195041,33.9465198 78.9636446,33.8923076 78.8279674,34.0290856 L78.0705677,34.7905515 C77.1637199,35.701271 76.8515042,37.0506783 77.2653085,38.2698856 L78.2538788,41.1812393 Z" id="Fill-11" fill="#FFF8EB"></path>
                <path d="M81.5530936,37.865948 C81.6149498,38.0489993 81.8463462,38.1027578 81.9820234,37.9664334 L82.7398746,37.2051944 C83.6462709,36.294248 83.9584866,34.9448407 83.5446823,33.7254066 L82.5563378,30.8142798 C82.4947074,30.6312285 82.2628595,30.5772432 82.1271823,30.7137944 L81.3697826,31.4748066 C80.4633863,32.3857529 80.1507191,33.7353871 80.5645234,34.9548212 L81.5530936,37.865948 Z" id="Fill-13" fill="#FFF8EB"></path>
                <path d="M53.8875978,66.9350941 C53.6819373,66.8972137 53.6268537,66.5848698 53.7833002,66.4265429 L54.1208002,66.0799478 L54.7856413,65.402182 L56.1155493,64.0461966 L58.7746881,61.333999 L64.1295376,55.9463502 L69.4940945,50.5680015 L72.193643,47.8964063 L73.543643,46.5608356 L74.218643,45.8928234 C74.4434925,45.6700771 74.6595376,45.4384844 74.9699473,45.3017063 C74.8335928,45.6135966 74.6030995,45.8306722 74.3814105,46.0565941 L73.7167952,46.7348137 L72.3873386,48.0910259 L69.7286513,50.8036771 L64.3758336,56.1935941 L59.0135343,61.5739844 L56.3144373,64.24626 L54.9648888,65.5820576 L54.2901145,66.2500698 L53.9596129,66.5787454 C53.9015945,66.6599502 53.861862,66.749321 53.8875978,66.9350941" id="Fill-15" fill="#352824"></path>
                <path d="M75.1793328,38.8346451 C74.7675602,39.44595 74.6009548,40.1418622 74.7187977,40.8078329 C74.7777191,41.1256207 74.9084298,41.494672 74.9802191,41.8448963 C75.066005,42.1992037 75.129893,42.5603159 75.172786,42.9277793 C75.0007625,42.6004646 74.8499599,42.266572 74.7208294,41.9256476 C74.592602,41.577011 74.459408,41.2639866 74.3758796,40.867489 C74.3137977,40.480972 74.3487893,40.0776695 74.4912391,39.7176915 C74.6296254,39.3565793 74.8761472,39.0449159 75.1793328,38.8346451" id="Fill-17" fill="#352824"></path>
                <path d="M78.4803085,35.5179249 C78.0683102,36.1294566 77.9019306,36.825142 78.0197734,37.4911127 C78.0786948,37.8089005 78.2094055,38.1779517 78.2811948,38.5281761 C78.366755,38.8824834 78.4308687,39.2435956 78.4737617,39.6112859 C78.3015125,39.2839712 78.1507099,38.9498517 78.0218052,38.6089273 C77.8935778,38.2602907 77.7603838,37.9472663 77.6768554,37.5507688 C77.6145477,37.1642517 77.6497651,36.7609493 77.7922149,36.4009712 C77.9306012,36.039859 78.1771229,35.7281956 78.4803085,35.5179249" id="Fill-19" fill="#352824"></path>
                <path d="M81.7797266,32.2027698 C81.367954,32.8140746 81.2015744,33.50976 81.3194172,34.1759576 C81.3781129,34.4937454 81.5088236,34.8627966 81.5806129,35.2127941 C81.6663988,35.5673283 81.7302868,35.9282137 81.7731798,36.2959039 C81.6011564,35.9688161 81.4503537,35.6344698 81.3212232,35.2937722 C81.1929958,34.9451356 81.0598018,34.6321112 80.9762734,34.2353868 C80.9141915,33.8490966 80.9491831,33.4457941 81.0916329,33.0858161 C81.2300192,32.7247039 81.476541,32.4130405 81.7797266,32.2027698" id="Fill-21" fill="#352824"></path>
                <path d="M85.5818052,34.5039527 C85.589255,33.810082 85.945944,33.1214283 86.4823319,32.6575624 C87.0218804,32.1909746 87.7126831,31.9382868 88.3967132,31.9131088 C87.7770226,32.2088941 87.1914206,32.4958332 86.710342,32.9218185 C86.2224908,33.3382771 85.8612868,33.8747283 85.5818052,34.5039527" id="Fill-23" fill="#352824"></path>
                <path d="M84.7253227,38.2910488 C85.1458997,37.8344415 85.8624381,37.6688561 86.4839348,37.843061 C86.7871204,37.9415049 87.0514766,38.0453927 87.3296037,38.1681073 C87.604796,38.2860585 87.8723127,38.4255585 88.1330569,38.5863805 C87.8289682,38.5543976 87.5321037,38.5013195 87.2422375,38.4264659 C86.9548545,38.3593244 86.6577642,38.2608805 86.391602,38.1801293 C85.8617609,38.0322366 85.2955736,38.0757878 84.7253227,38.2910488" id="Fill-25" fill="#352824"></path>
                <path d="M81.4258821,41.6062039 C81.8462333,41.1495966 82.5629975,40.9840112 83.1844941,41.1582161 C83.4876798,41.25666 83.7518102,41.3607746 84.030163,41.4832624 C84.3053554,41.6012137 84.5728721,41.7407137 84.8336162,41.9015356 C84.5293018,41.8695527 84.2324373,41.8164746 83.9427968,41.7418478 C83.6554139,41.6747063 83.3583236,41.5760356 83.0921614,41.4955112 C82.5620945,41.3473917 81.9961329,41.3909429 81.4258821,41.6062039" id="Fill-27" fill="#352824"></path>
                <path d="M78.1302115,44.9175937 C78.5507885,44.4609863 79.2673269,44.295401 79.8888236,44.4696059 C80.1920092,44.5680498 80.4563654,44.6721644 80.7344925,44.7946522 C81.009459,44.9126034 81.2772015,45.0521034 81.5379457,45.2129254 C81.2336313,45.1809424 80.9367667,45.1278644 80.6471263,45.0532376 C80.3597433,44.9860961 80.062653,44.8874254 79.7964908,44.806901 C79.2664239,44.6587815 78.7004624,44.7023327 78.1302115,44.9175937" id="Fill-29" fill="#352824"></path>
                <polygon id="Fill-31" fill="#352824" points="53.8605978 66.4960661 54.6030978 66.9960661 53.7795527 66.7848147"></polygon>
                <polygon id="Fill-33" fill="#352824" points="54.3341589 66.0204732 55.0764331 66.5204732 54.2531137 66.3089347"></polygon>
                <polygon id="Fill-35" fill="#352824" points="54.8076973 65.5446761 55.5499716 66.0446761 54.7264264 65.8331376"></polygon>
                <polygon id="Fill-37" fill="#352824" points="55.2811455 65.0688563 56.0234197 65.5688563 55.2001003 65.3573179"></polygon>
                <polygon id="Fill-39" fill="#352824" points="55.7547065 64.5930366 56.4969808 65.0930366 55.6736614 64.8816195"></polygon>
                <polygon id="Fill-41" fill="#352824" points="56.2281321 64.1173529 56.9706321 64.6173529 56.147087 64.4058145"></polygon>
                <polygon id="Fill-43" fill="#352824" points="56.7016931 63.6415332 57.4441931 64.1415332 56.620648 63.9298292"></polygon>
                <polygon id="Fill-45" fill="#352824" points="57.1752316 63.1657361 57.9175059 63.6657361 57.0941865 63.454319"></polygon>
                <polygon id="Fill-47" fill="#352824" points="57.6487926 62.6900298 58.3910669 63.1900298 57.5675217 62.9784913"></polygon>
                <polygon id="Fill-49" fill="#352824" points="58.1222408 62.2143234 58.8645151 62.7143234 58.0411957 62.502785"></polygon>
                <polygon id="Fill-51" fill="#352824" points="58.5956664 61.7385263 59.3381664 62.2385263 58.5146212 62.0269879"></polygon>
                <polygon id="Fill-53" fill="#352824" points="59.0692274 61.2627066 59.8117274 61.7627066 58.9881823 61.5511681"></polygon>
                <polygon id="Fill-55" fill="#352824" points="59.5427659 60.7869095 60.2850401 61.2869095 59.4617207 61.0754924"></polygon>
                <polygon id="Fill-57" fill="#352824" points="60.0163269 60.3112032 60.7586012 60.8112032 59.935056 60.5996647"></polygon>
                <polygon id="Fill-59" fill="#352824" points="60.4897751 59.8353834 61.2320493 60.3353834 60.4087299 60.124132"></polygon>
                <polygon id="Fill-61" fill="#352824" points="60.9633135 59.3596998 61.7055878 59.8596998 60.8820426 59.6481613"></polygon>
                <polygon id="Fill-63" fill="#352824" points="61.4367617 58.88388 62.1792617 59.38388 61.3557166 59.1723415"></polygon>
                <polygon id="Fill-65" fill="#352824" points="61.9103002 58.4080829 62.6525744 58.9080829 61.829255 58.6966658"></polygon>
                <polygon id="Fill-67" fill="#352824" points="62.3837483 57.9323766 63.1262483 58.4323766 62.3027032 58.2208381"></polygon>
                <polygon id="Fill-69" fill="#352824" points="62.8573094 57.4565568 63.5998094 57.9565568 62.7762642 57.7450184"></polygon>
                <polygon id="Fill-71" fill="#352824" points="63.3308478 56.9807598 64.0731221 57.4807598 63.2498027 57.2693427"></polygon>
                <polygon id="Fill-73" fill="#352824" points="63.8044089 56.5050534 64.5466831 57.0050534 63.723138 56.793515"></polygon>
                <polygon id="Fill-75" fill="#352824" points="64.277857 56.0292563 65.0201313 56.5292563 64.1968119 56.3180049"></polygon>
                <polygon id="Fill-77" fill="#352824" points="64.7512826 55.55355 65.4937826 56.05355 64.6702375 55.8420115"></polygon>
                <polygon id="Fill-79" fill="#352824" points="65.6983821 54.6019332 66.4406564 55.1019332 65.617337 54.8902292"></polygon>
                <polygon id="Fill-81" fill="#352824" points="66.1719431 54.1262268 66.9142174 54.6262268 66.0906722 54.4146884"></polygon>
                <polygon id="Fill-83" fill="#352824" points="66.6453913 53.6504071 67.3876656 54.1504071 66.5643462 53.9391556"></polygon>
                <polygon id="Fill-85" fill="#352824" points="67.1189298 53.1747234 67.8614298 53.6747234 67.0376589 53.463185"></polygon>
                <polygon id="Fill-87" fill="#352824" points="67.5923779 52.6989037 68.3346522 53.1989037 67.5113328 52.9873652"></polygon>
                <polygon id="Fill-89" fill="#352824" points="68.0659164 52.2231066 68.8081906 52.7231066 67.9848712 52.5116895"></polygon>
                <polygon id="Fill-91" fill="#352824" points="68.5394774 51.7472868 69.2817517 52.2472868 68.4584323 52.0358697"></polygon>
                <polygon id="Fill-93" fill="#352824" points="69.0130159 51.2715805 69.7552901 51.7715805 68.9319707 51.560042"></polygon>
                <polygon id="Fill-95" fill="#352824" points="69.4863512 50.7957834 70.2288512 51.2957834 69.405306 51.0843663"></polygon>
                <polygon id="Fill-97" fill="#352824" points="69.9599122 50.3200771 70.7021865 50.8200771 69.8788671 50.6088256"></polygon>
                <polygon id="Fill-99" fill="#352824" points="70.4334507 49.84428 71.1757249 50.34428 70.3524055 50.1330286"></polygon>
                <polygon id="Fill-101" fill="#352824" points="70.9070117 49.3685737 71.649286 49.8685737 70.8259666 49.6570352"></polygon>
                <polygon id="Fill-103" fill="#352824" points="71.3805727 48.8927539 72.122847 49.3927539 71.2993018 49.1812154"></polygon>
                <polygon id="Fill-105" fill="#352824" points="71.8538855 48.4169568 72.5963855 48.9169568 71.7728403 48.7052529"></polygon>
                <polygon id="Fill-107" fill="#352824" points="72.3274465 47.9412505 73.0697207 48.4412505 72.2464013 48.229712"></polygon>
                <polygon id="Fill-109" fill="#352824" points="72.8009849 47.4654534 73.5432592 47.9654534 72.7199398 47.754202"></polygon>
                <polygon id="Fill-111" fill="#352824" points="73.274546 46.9897471 74.0168202 47.4897471 73.1935008 47.2782086"></polygon>
                <polygon id="Fill-113" fill="#352824" points="73.748107 46.5139273 74.4903813 47.0139273 73.6670619 46.8023889"></polygon>
                <polygon id="Fill-115" fill="#352824" points="74.2216455 46.0381302 74.9639197 46.5381302 74.1403746 46.3267131"></polygon>
                <polygon id="Fill-117" fill="#352824" points="74.7077183 45.5623105 75.1139356 46.0623105 74.6139356 46.0102179"></polygon>
                <path d="M51.1251095,31.0330566 L45.4526263,36.7325956 C44.8315811,37.3566029 44.8315811,38.3684883 45.4526263,38.9927224 L52.6977015,46.2723541 C53.1575594,46.7344054 53.9034457,46.7344054 54.3633035,46.2723541 L55.8663637,44.761898 C56.3262216,44.2998468 57.0718821,44.2998468 57.53174,44.761898 L80.88674,68.22852 C81.3244741,68.6681151 82.0340142,68.6681151 82.4715226,68.22852 C82.9092567,67.788698 82.9092567,67.0760005 82.4715226,66.6361785 L59.1165226,43.1697834 C58.656439,42.7077322 58.656439,41.9585151 59.1165226,41.4964639 L60.6195828,39.9862346 C61.0794406,39.5239566 61.0794406,38.7747395 60.6195828,38.3126883 L53.3745075,31.0330566 C52.7532366,30.4090493 51.7461547,30.4090493 51.1251095,31.0330566" id="Fill-119" fill="#FFF8EB"></path>
                <path d="M48.4190594,40.8313551 C47.7485744,40.2597454 47.1051798,39.6609161 46.4656229,39.0582307 C46.3046614,38.9085234 46.1443771,38.7583624 45.9888336,38.6032112 C45.8201965,38.4621234 45.6490761,38.2021771 45.6364339,37.9415502 C45.6111497,37.6786551 45.7016764,37.4044185 45.8827299,37.2088917 L46.3448453,36.7316429 C46.9740176,36.1187502 47.5928052,35.4949698 48.2321363,34.8920576 C48.8716931,34.2893722 49.514862,33.6905429 50.1857985,33.1193868 C49.6173537,33.7935234 49.0213671,34.43976 48.4215426,35.0823673 C47.8214925,35.7247478 47.2008988,36.3464868 46.5906898,36.9788868 L46.1249624,37.4373088 C46.003959,37.5616112 45.9396196,37.7389917 45.9515844,37.9154649 C45.9660326,38.1003307 46.0421112,38.2416454 46.2014925,38.389538 C46.3559072,38.5458234 46.5053554,38.7068722 46.654352,38.8686015 C47.2541764,39.5112088 47.850163,40.1576722 48.4190594,40.8313551" id="Fill-121" fill="#352824"></path>
                <path d="M81.9034164,67.6572278 C81.8634582,67.7524961 81.7535167,67.8262156 81.6329649,67.8250815 C81.5153478,67.8393717 81.3810251,67.7375254 81.3288763,67.6778693 L80.9207157,67.2745668 L80.1059749,66.4661473 L78.4767191,64.8495351 L75.2182074,61.6160839 L68.7307575,55.1194668 L62.2442107,48.6221693 L59.0200134,45.3540132 L58.2140769,44.5369741 C57.9436254,44.2477668 57.6980067,44.0220717 57.3600552,43.8925522 C56.6965686,43.6394107 55.9375886,43.7580424 55.2982575,44.1912863 C55.7344114,43.5210059 56.711694,43.2767107 57.4740602,43.5963132 C57.8614515,43.7326376 58.1946622,44.0384034 58.444796,44.3051546 L59.2579565,45.115162 L62.5103729,48.3542839 L68.9768278,54.8722229 L75.4428311,61.3903888 L78.6609331,64.6646693 L80.2698712,66.3014693 L81.0742274,67.1203229 L81.4756154,67.5302034 C81.5808161,67.6678888 81.7011421,67.7277717 81.9034164,67.6572278" id="Fill-123" fill="#352824"></path>
                <path d="M48.9003411,41.3149098 C49.0561104,41.3772878 49.1683094,41.4834439 49.2838946,41.5861976 C49.3863863,41.7023341 49.4922642,41.8148415 49.5541204,41.9718073 C49.3978997,41.9096561 49.2859264,41.8032732 49.1703411,41.7002927 C49.0680753,41.5841561 48.9624231,41.471422 48.9003411,41.3149098" id="Fill-125" fill="#352824"></path>
                <polygon id="Fill-127" fill="#352824" points="81.5092299 67.6984427 82.0092299 66.952628 81.7976915 67.7798744"></polygon>
                <polygon id="Fill-129" fill="#352824" points="81.0356689 67.2226229 81.5356689 66.4768083 81.3241304 67.3040546"></polygon>
                <polygon id="Fill-131" fill="#352824" points="80.5621304 66.7468259 81.0621304 66.0010112 80.850879 66.8284844"></polygon>
                <polygon id="Fill-133" fill="#352824" points="80.0885694 66.2712329 80.5885694 65.5251915 80.377318 66.3526646"></polygon>
                <polygon id="Fill-135" fill="#352824" points="79.6150084 65.7954132 80.1150084 65.0493717 79.9037569 65.8768449"></polygon>
                <polygon id="Fill-137" fill="#352824" points="79.1416957 65.3196161 79.6416957 64.5738015 79.4301572 65.4010478"></polygon>
                <polygon id="Fill-139" fill="#352824" points="78.6681346 64.8439098 79.1681346 64.0978683 78.9565962 64.9253415"></polygon>
                <polygon id="Fill-141" fill="#352824" points="78.1945736 64.36809 78.6945736 63.6220485 78.4833221 64.4495217"></polygon>
                <polygon id="Fill-143" fill="#352824" points="77.7210351 63.8922929 78.2210351 63.1464783 78.0097837 63.9737246"></polygon>
                <polygon id="Fill-145" fill="#352824" points="77.2474741 63.4165866 77.7474741 62.6705451 77.536057 63.4980183"></polygon>
                <polygon id="Fill-147" fill="#352824" points="76.7741614 62.9407895 77.2741614 62.1949749 77.0626229 63.0222212"></polygon>
                <polygon id="Fill-149" fill="#352824" points="76.3006003 62.4649698 76.8006003 61.7191551 76.5893489 62.5466283"></polygon>
                <polygon id="Fill-151" fill="#352824" points="75.8270393 61.9892634 76.3270393 61.2434488 76.1157879 62.0706951"></polygon>
                <polygon id="Fill-153" fill="#352824" points="75.3535008 61.5134663 75.8535008 60.7676517 75.6422494 61.594898"></polygon>
                <polygon id="Fill-155" fill="#352824" points="74.8799398 61.03776 75.3799398 60.2917185 75.1685227 61.1191917"></polygon>
                <polygon id="Fill-157" fill="#352824" points="74.4064013 60.5619629 74.9064013 59.8159215 74.6949842 60.6433946"></polygon>
                <polygon id="Fill-159" fill="#352824" points="73.9330661 60.0861432 74.4330661 59.3403285 74.2215276 60.1675749"></polygon>
                <polygon id="Fill-161" fill="#352824" points="73.459505 59.6103234 73.959505 58.8645088 73.7482536 59.691982"></polygon>
                <polygon id="Fill-163" fill="#352824" points="72.9859666 59.1346398 73.4859666 58.3888251 73.2747151 59.2160715"></polygon>
                <polygon id="Fill-165" fill="#352824" points="72.5124055 58.6589334 73.0124055 57.912892 72.8011541 58.7403651"></polygon>
                <polygon id="Fill-167" fill="#352824" points="72.0388671 58.1831363 72.5388671 57.4370949 72.32745 58.264568"></polygon>
                <polygon id="Fill-169" fill="#352824" points="71.5655318 57.7073166 72.0655318 56.961502 71.8539933 57.7887483"></polygon>
                <polygon id="Fill-171" fill="#352824" points="71.0919707 57.2314968 71.5919707 56.4856822 71.3804323 57.3131554"></polygon>
                <polygon id="Fill-173" fill="#352824" points="70.6184323 56.7558132 71.1184323 56.0099985 70.9071808 56.8372449"></polygon>
                <polygon id="Fill-175" fill="#352824" points="70.1448712 56.2799934 70.6448712 55.5341788 70.4336198 56.361652"></polygon>
                <polygon id="Fill-177" fill="#352824" points="69.6713328 55.8043098 70.1713328 55.0582683 69.9600813 55.8857415"></polygon>
                <polygon id="Fill-179" fill="#352824" points="69.1979975 55.32849 69.6979975 54.5826754 69.486459 55.4099217"></polygon>
                <polygon id="Fill-181" fill="#352824" points="68.7244365 54.8527837 69.2244365 54.1067422 69.012898 54.9342154"></polygon>
                <polygon id="Fill-183" fill="#352824" points="68.250898 54.3769866 68.750898 53.6309451 68.5396466 54.4584183"></polygon>
                <polygon id="Fill-185" fill="#352824" points="67.777337 53.9011668 68.277337 53.1553522 68.0660855 53.9825985"></polygon>
                <polygon id="Fill-187" fill="#352824" points="67.3038888 53.4254605 67.8038888 52.679419 67.5923503 53.5068922"></polygon>
                <polygon id="Fill-189" fill="#352824" points="66.8303503 52.9496634 67.3303503 52.2038488 67.1188119 53.0310951"></polygon>
                <polygon id="Fill-191" fill="#352824" points="66.3567893 52.4739571 66.8567893 51.7279156 66.6453722 52.5553888"></polygon>
                <polygon id="Fill-193" fill="#352824" points="65.8833637 51.99816 66.3833637 51.2521185 66.1718253 52.0795917"></polygon>
                <polygon id="Fill-195" fill="#352824" points="65.4098027 51.5223402 65.9098027 50.7765256 65.6985512 51.603772"></polygon>
                <polygon id="Fill-197" fill="#352824" points="64.9363545 51.0465432 65.4363545 50.3007285 65.2248161 51.1282017"></polygon>
                <polygon id="Fill-199" fill="#352824" points="64.4628161 50.5708368 64.9628161 49.8250222 64.7512776 50.6522685"></polygon>
                <polygon id="Fill-201" fill="#352824" points="63.989255 50.0950171 64.489255 49.3492024 64.2778379 50.1766756"></polygon>
                <polygon id="Fill-203" fill="#352824" points="63.5158294 49.6193334 64.0158294 48.873292 63.804291 49.7007651"></polygon>
                <polygon id="Fill-205" fill="#352824" points="63.0422684 49.1435137 63.5422684 48.397699 63.331017 49.2249454"></polygon>
                <polygon id="Fill-207" fill="#352824" points="62.5688202 48.6678073 63.0688202 47.9217659 62.8572818 48.749239"></polygon>
                <polygon id="Fill-209" fill="#352824" points="62.0952818 48.1920102 62.5952818 47.4459688 62.3837433 48.273442"></polygon>
                <polygon id="Fill-211" fill="#352824" points="61.6217207 47.7161905 62.1217207 46.9703759 61.9103036 47.7976222"></polygon>
                <polygon id="Fill-213" fill="#352824" points="61.1482952 47.2405068 61.6482952 46.4944654 61.4367567 47.3219385"></polygon>
                <polygon id="Fill-215" fill="#352824" points="60.6747341 46.7646871 61.1747341 46.0188724 60.9631957 46.8461188"></polygon>
                <polygon id="Fill-217" fill="#352824" points="60.2011731 46.2889807 60.7011731 45.5429393 60.489756 46.3704124"></polygon>
                <polygon id="Fill-219" fill="#352824" points="59.7277475 45.8131837 60.2277475 45.0671422 60.016209 45.8946154"></polygon>
                <polygon id="Fill-221" fill="#352824" points="59.2541865 45.3373639 59.7541865 44.5913224 59.542935 45.4187956"></polygon>
                <polygon id="Fill-223" fill="#352824" points="58.7807609 44.8615668 59.2807609 44.1157522 59.0692224 44.9432254"></polygon>
                <polygon id="Fill-225" fill="#352824" points="58.3071998 44.3858605 58.8071998 43.6400459 58.5956614 44.4672922"></polygon>
                <polygon id="Fill-227" fill="#352824" points="57.8336388 43.9100407 58.3336388 43.1642261 58.1219348 43.9916993"></polygon>
                <polygon id="Fill-229" fill="#352824" points="57.2691672 43.6901978 57.7691672 42.6882929 57.5033238 43.7716295"></polygon>
                <polygon id="Fill-231" fill="#352824" points="56.6688462 43.5709083 57.1688462 42.6334229 56.9146876 43.65234"></polygon>
                <polygon id="Fill-233" fill="#352824" points="55.9946589 43.6591902 56.4946589 42.9628244 56.296761 43.740622"></polygon>
                <path d="M5.74269231,10.7074756 C6.58723244,10.7074756 7.24146321,10.0494439 7.24146321,9.11626829 C7.24146321,8.18309268 6.58723244,7.54638293 5.74269231,7.54638293 L3.77909699,7.54638293 L3.77909699,10.7074756 L5.74269231,10.7074756 Z M5.74269231,3.9191561 C7.24146321,3.9191561 8.48716555,4.40729268 9.50056856,5.38265854 C10.5139716,6.35870488 11.0205602,7.60989512 11.0205602,9.11626829 C11.0205602,10.6224146 10.5139716,11.8742854 9.50056856,12.849878 C8.48716555,13.8259244 7.24146321,14.3138341 5.74269231,14.3138341 L3.77909699,14.3138341 L3.77909699,18.7685341 L0,18.7685341 L0,3.9191561 L5.74269231,3.9191561 Z" id="Fill-235" fill="#FFF8EB"></path>
                <mask id="mask-2" fill="white">
                    <use xlink:href="#path-1"></use>
                </mask>
                <g id="Clip-238"></g>
                <polygon id="Fill-237" fill="#FFF8EB" mask="url(#mask-2)" points="14.0826672 18.7685341 17.8617642 18.7685341 17.8617642 3.9191561 14.0826672 3.9191561"></polygon>
                <polygon id="Fill-239" fill="#FFF8EB" mask="url(#mask-2)" points="30.170694 3.91911073 33.9285702 3.91911073 33.9285702 18.7684888 31.0150084 18.7684888 25.8005769 11.3012693 25.8005769 18.7684888 22.0208027 18.7684888 22.0208027 3.91911073 24.955811 3.91911073 30.170694 11.3863302"></polygon>
                <path d="M38.8488236,16.880498 C37.3915911,15.3956737 36.6741497,13.5499639 36.6741497,11.3435956 C36.6741497,9.13768098 37.3915911,7.29197122 38.8488236,5.82846878 C40.3053788,4.34341756 42.1635477,3.60055171 44.3802115,3.60055171 C45.7103453,3.60055171 46.9560477,3.91902 48.0954206,4.5552761 C49.236148,5.19175902 50.1224523,6.04010049 50.7771346,7.12252976 L47.5050778,9.01042976 C46.9348269,7.97087122 45.7523353,7.31329317 44.3802115,7.31329317 C43.1977199,7.31329317 42.2475276,7.69482 41.5086396,8.43745902 C40.7909724,9.17987122 40.4320259,10.1343688 40.4320259,11.3435956 C40.4320259,12.5530493 40.7909724,13.528642 41.5086396,14.2710541 C42.2475276,15.0134663 43.1977199,15.3743517 44.3802115,15.3743517 C45.7523353,15.3743517 46.9348269,14.737642 47.5050778,13.6558932 L50.7771346,15.5651151 C49.4894423,17.7501615 47.0826948,19.0864127 44.3802115,19.0864127 C42.1635477,19.0864127 40.3053788,18.3440005 38.8488236,16.880498" id="Fill-240" fill="#FFF8EB" mask="url(#mask-2)"></path>
                <polygon id="Fill-241" fill="#FFF8EB" mask="url(#mask-2)" points="61.7987559 3.91911073 65.5566321 3.91911073 65.5566321 18.7684888 61.7987559 18.7684888 61.7987559 13.061918 57.6397174 13.061918 57.6397174 18.7684888 53.8606204 18.7684888 53.8606204 3.91911073 57.6397174 3.91911073 57.6397174 9.41336927 61.7987559 9.41336927"></polygon>
                <polygon id="Fill-242" fill="#FFF8EB" mask="url(#mask-2)" points="84.7705184 3.91911073 84.7705184 18.7684888 81.0126421 18.7684888 81.0126421 10.7711693 77.4227258 16.7320156 77.04301 16.7320156 73.4749916 10.7918107 73.4749916 18.7684888 69.6958946 18.7684888 69.6958946 3.91911073 73.4749916 3.91911073 77.2328679 10.2617107 81.0126421 3.91911073"></polygon>
                <path d="M93.3645326,13.3592005 L96.3410794,13.3592005 L94.8423085,8.3102078 L93.3645326,13.3592005 Z M97.945954,18.768398 L97.3122667,16.6259956 L92.3931196,16.6259956 L91.7601095,18.768398 L87.6638303,18.768398 L92.5409875,3.91902 L97.1436296,3.91902 L102.020787,18.768398 L97.945954,18.768398 Z" id="Fill-243" fill="#FFF8EB" mask="url(#mask-2)"></path>
                <polygon id="Fill-244" fill="#FFF8EB" mask="url(#mask-2)" points="113.379569 3.91911073 117.137897 3.91911073 117.137897 18.7684888 114.22411 18.7684888 109.009452 11.3012693 109.009452 18.7684888 105.230581 18.7684888 105.230581 3.91911073 108.164912 3.91911073 113.379569 11.3863302"></polygon>
                <path d="M123.345527,15.3956963 L126.576271,13.5073427 C127.125075,14.8227256 128.096037,15.4800768 129.489381,15.4800768 C130.650426,15.4800768 131.220903,15.1407402 131.220903,14.483389 C131.220903,14.0381232 130.883177,13.6985598 130.228043,13.4227354 C129.954206,13.3163524 129.320744,13.125589 128.370552,12.8497646 C125.668069,12.0651622 123.979214,10.7497793 123.979214,8.20430122 C123.979214,6.82517927 124.464808,5.72210854 125.435769,4.87376707 C126.428177,4.02497195 127.652433,3.60057439 129.10944,3.60057439 C131.579398,3.60057439 133.585435,4.7887061 134.599064,6.99462073 L131.431982,8.86187927 C130.967157,7.75858171 130.2075,7.20693293 129.130661,7.20693293 C128.222684,7.20693293 127.758311,7.61000854 127.758311,8.18297927 C127.758311,8.84055732 128.285895,9.20121585 130.291706,9.79505488 C131.009599,10.0073671 131.579398,10.1981305 132.023002,10.3888939 C132.466605,10.5803378 132.930527,10.8346134 133.459013,11.1954988 C134.493637,11.8743988 135,12.9770159 135,14.4411988 C135,15.9044744 134.493637,17.0290939 133.459013,17.8561134 C132.424164,18.6835866 131.072809,19.0864354 129.383955,19.0864354 C126.259089,19.0864354 124.168846,17.6651232 123.345527,15.3956963" id="Fill-245" fill="#FFF8EB" mask="url(#mask-2)"></path>
                <polygon id="Fill-246" fill="#FFF8EB" mask="url(#mask-2)" points="122.819275 -0.000136097561 121.775621 3.91902 120.111374 3.91902 120.546173 -0.000136097561"></polygon>
                <path d="M3.30582943,31.6368988 L3.41306187,31.6228354 C5.34302007,31.3710549 6.76638963,32.4727646 6.9795,34.1243085 C7.10705017,35.1119232 6.80995987,35.8355085 6.27718395,36.4252646 L5.04389799,35.5267939 C5.33082943,35.2155841 5.55455017,34.839728 5.49088796,34.3459207 C5.39584615,33.6098598 4.67276087,33.1473549 3.60969231,33.2861744 L3.57379766,33.290711 C2.45722575,33.4363354 1.91248495,34.073272 2.00639799,34.8000329 C2.07592977,35.3392061 2.40372241,35.625011 2.77124749,35.8688524 L1.86688294,37.0274963 C1.17540301,36.597428 0.638337793,35.9555012 0.502660535,34.904828 C0.29519398,33.2979695 1.35803679,31.8909476 3.30582943,31.6368988" id="Fill-247" fill="#FFF8EB" mask="url(#mask-2)"></path>
                <path d="M5.25391555,44.824571 L6.85766137,43.7328417 L4.92115635,43.6963222 L5.25391555,44.824571 Z M8.60724331,42.3709588 L9.07319649,43.950371 L3.62714298,47.9053661 L3.1431296,46.2658441 L4.12583027,45.58581 L3.56235201,43.6770417 L2.37173328,43.654132 L1.89787876,42.0493149 L8.60724331,42.3709588 Z" id="Fill-248" fill="#FFF8EB" mask="url(#mask-2)"></path>
                <polygon id="Fill-249" fill="#FFF8EB" mask="url(#mask-2)" points="11.2844197 50.0904805 13.1292692 53.979922 11.8117776 54.6107341 10.6645033 52.1922805 9.65629264 52.6749732 10.6870786 54.848678 9.42670234 55.4518171 8.39591639 53.2781122 6.28941973 54.2870488 5.59207023 52.8162878"></polygon>
                <path d="M19.1103788,58.51374 L19.5618838,60.0194327 L18.1556714,59.5058912 L17.5032467,58.5282571 L19.1103788,58.51374 Z M15.3592751,57.8897327 L17.778439,61.5137839 L16.5963988,62.3104083 L15.0703119,60.0248766 L14.2097433,60.6046522 L15.5850276,62.6649424 L14.4698102,63.4164278 L13.0949774,61.3559107 L12.1967082,61.9610912 L13.7424356,64.2772449 L12.5601697,65.0736424 L10.1211396,61.4194229 L15.3592751,57.8897327 Z" id="Fill-250" fill="#FFF8EB" mask="url(#mask-2)"></path>
                <path d="M25.6786931,72.4835649 L25.684337,72.47676 C25.8832249,72.2540137 25.88774,71.9913454 25.6926898,71.8162332 C25.4913186,71.6354502 25.2070962,71.6833112 25.0025644,71.9119551 L24.9966948,71.9189868 C24.8226396,72.1149673 24.7524306,72.3429307 24.7212768,72.7035893 C25.1540443,72.8015795 25.4624222,72.726499 25.6786931,72.4835649 L25.6786931,72.4835649 Z M23.3805326,74.9966063 L23.438551,73.5061112 C23.1044373,73.4729941 22.8427901,73.5904917 22.6748303,73.7792137 L22.6633169,73.7925966 C22.3987349,74.0892893 22.4323721,74.4726307 22.7348804,74.7443722 C22.9026145,74.8949868 23.1303988,74.97846 23.3805326,74.9966063 L23.3805326,74.9966063 Z M23.3638269,76.208782 C22.7748386,76.1650039 22.2404824,75.9638063 21.7573721,75.5294283 C20.8778403,74.7384746 20.6577316,73.6415283 21.4085844,72.7986307 L21.4268704,72.7782161 C21.9375226,72.2050185 22.6168119,72.0262771 23.4769289,72.2413112 C23.554362,71.6790015 23.7062935,71.3054137 23.9943537,70.9815015 L24.0124139,70.9610868 C24.6009507,70.3001063 25.623158,70.2107356 26.455959,70.959499 C27.2483503,71.6717429 27.3002734,72.617621 26.6993202,73.2922112 L26.6817115,73.312399 C26.1825727,73.8724405 25.4996714,73.9747405 24.742949,73.7923698 L24.7088604,74.7945015 C24.9973721,74.7015015 25.3150059,74.5617746 25.6574724,74.4079844 L26.1701564,75.4888259 C25.661536,75.7603405 25.1687182,75.9610844 24.697347,76.0835722 L24.6944122,77.1861893 L23.3638269,77.0101698 L23.3638269,76.208782 Z" id="Fill-251" fill="#FFF8EB" mask="url(#mask-2)"></path>
                <path d="M38.0949682,83.7359751 L38.412602,81.8151849 L37.0513144,83.2011117 L38.0949682,83.7359751 Z M38.6356455,79.6022385 L40.0962642,80.351002 L39.1964147,87.0451873 L37.6793579,86.2671629 L37.8660552,85.0826605 L36.1008963,84.1773849 L35.2633545,85.028902 L33.7785803,84.2683434 L38.6356455,79.6022385 Z" id="Fill-252" fill="#FFF8EB" mask="url(#mask-2)"></path>
                <path d="M47.3895151,86.6612788 C47.9130351,86.8302666 48.3178094,86.6281617 48.4724498,86.1456959 L48.4776421,86.1284568 C48.6435702,85.6112861 48.3997575,85.247452 47.8850418,85.0809593 L47.1305769,84.8375715 L46.6262458,86.4147154 L47.3895151,86.6612788 Z M46.0277759,82.9882324 L48.3866639,83.7499251 C49.1932776,84.010552 49.7332776,84.4224739 49.992893,84.9439544 C50.2195485,85.3883129 50.2595067,85.9141032 50.0633278,86.5263154 L50.0500084,86.5696398 C49.7635284,87.4658422 49.1465468,87.884569 48.4096906,87.9986641 L48.9447241,90.5867861 L47.2032692,90.0242495 L46.7808863,87.8244593 L46.2318562,87.6473056 L45.633612,89.5175129 L44.0980435,89.0214373 L46.0277759,82.9882324 Z" id="Fill-253" fill="#FFF8EB" mask="url(#mask-2)"></path>
                <polygon id="Fill-254" fill="#FFF8EB" mask="url(#mask-2)" points="56.1339933 87.1738449 54.59549 86.9256937 54.8268863 85.4782961 59.5053813 86.2322766 59.2737592 87.679901 57.7348043 87.4319766 56.9672458 92.2400766 55.3666605 91.9819449"></polygon>
                <polygon id="Fill-255" fill="#FFF8EB" mask="url(#mask-2)" points="63.9397701 86.5626988 65.5597701 86.6200866 65.3387584 92.9495305 63.7187584 92.8928232"></polygon>
                <path d="M70.4665234,92.0675276 L71.218505,90.8068105 C71.7691154,91.1822129 72.3781957,91.4163007 72.9884047,91.3589129 C73.4184632,91.3187641 73.6250268,91.1084934 73.600194,90.8385666 L73.5990652,90.8292666 C73.575587,90.5770324 73.3733127,90.4413885 72.6138813,90.2488105 C71.3923344,89.9543861 70.5182207,89.599852 70.4125686,88.4552715 L70.4098595,88.4287324 C70.3035301,87.2843788 71.0997592,86.4013324 72.4716572,86.2722666 C73.3141656,86.1935568 74.0801438,86.3584617 74.7842659,86.8286788 L74.0801438,88.1123056 C73.6189314,87.8192422 73.0762224,87.6248495 72.564893,87.6727105 C72.1975936,87.706508 72.0077358,87.9063446 72.029408,88.1406593 L72.0305368,88.1499593 C72.0564983,88.4287324 72.2671254,88.5550763 73.0922508,88.7775959 C74.320796,89.0534202 75.110704,89.4701056 75.2098094,90.5423276 L75.2113896,90.5600202 C75.3249431,91.7860324 74.4537642,92.6305178 73.1087308,92.7566349 C72.1756957,92.8437373 71.261398,92.6384568 70.4665234,92.0675276" id="Fill-256" fill="#FFF8EB" mask="url(#mask-2)"></path>
                <path d="M83.1287333,88.4256249 L82.1094607,86.7686371 L81.9922952,88.7125639 L83.1287333,88.4256249 Z M80.8287667,84.9537761 L82.4198704,84.5525151 L86.1253721,90.1894493 L84.4737667,90.6065883 L83.8387249,89.5903932 L81.9155393,90.0762615 L81.8430727,91.2714249 L80.2260075,91.6797176 L80.8287667,84.9537761 Z" id="Fill-257" fill="#FFF8EB" mask="url(#mask-2)"></path>
                <polygon id="Fill-258" fill="#FFF8EB" mask="url(#mask-2)" points="88.6010192 82.6264171 89.99775 82.0148854 93.1901162 84.0946829 91.9231931 81.1722146 93.3851664 80.5321024 95.9050159 86.3427878 94.5830092 86.9216561 91.2624156 84.7504463 92.583745 87.7969902 91.1213202 88.4371024"></polygon>
                <path d="M106.826358,76.320382 L106.084987,76.9105917 L106.851191,77.8825551 L107.600237,77.2864478 C107.99553,76.9720624 108.088992,76.6091356 107.848114,76.3038234 L107.84247,76.2967917 C107.61288,76.0059966 107.243097,75.9887576 106.826358,76.320382 L106.826358,76.320382 Z M106.199217,74.5329673 C105.963983,74.2349137 105.623548,74.2405844 105.242027,74.544082 L104.613306,75.0440137 L105.34655,75.9737868 L105.954276,75.4904137 C106.342119,75.1812454 106.445062,74.8453112 106.204184,74.5402259 L106.199217,74.5329673 Z M102.538866,74.9639429 L104.586216,73.3334941 C105.179945,72.8614624 105.750647,72.6380356 106.275522,72.7056307 C106.636952,72.7412429 106.969259,72.915221 107.249418,73.2697551 L107.27109,73.2985624 C107.718983,73.8663161 107.662319,74.4651454 107.39864,74.975738 C108.084702,74.752538 108.716809,74.7813454 109.230848,75.43416 L109.253423,75.4622868 C109.924811,76.3142576 109.674677,77.367199 108.509794,78.2947039 L106.454543,79.9303698 L102.538866,74.9639429 Z" id="Fill-259" fill="#FFF8EB" mask="url(#mask-2)"></path>
                <path d="M114.603125,69.1874407 L112.847222,68.364731 L113.810283,70.053248 L114.603125,69.1874407 Z M110.786102,67.5551773 L111.895676,66.3423212 L118.070458,69.0091529 L116.918443,70.2682822 L115.832799,69.7697115 L114.491152,71.2359359 L115.083075,72.2739066 L113.95499,73.5069505 L110.786102,67.5551773 Z" id="Fill-260" fill="#FFF8EB" mask="url(#mask-2)"></path>
                <polygon id="Fill-261" fill="#FFF8EB" mask="url(#mask-2)" points="116.021799 61.3052371 116.916457 59.9460761 118.998346 61.329281 117.875905 58.4882444 118.904885 56.9251639 120.066156 60.052459 124.200587 60.3677517 123.156707 61.953742 120.539559 61.7452859 120.810236 62.5326102 122.178296 63.441742 121.283639 64.8011298"></polygon>
                <polygon id="Fill-262" fill="#FFF8EB" mask="url(#mask-2)" points="120.953521 53.1175624 122.766991 49.1557624 124.05965 49.7530039 122.915762 52.2515283 123.856698 52.68636 124.887936 50.4339454 126.106096 50.9976161 125.075762 53.2495771 126.057334 53.7032356 127.216121 51.171821 128.50878 51.7688356 126.679959 55.7635259"></polygon>
                <path d="M128.0063,43.2338854 C128.156426,42.7026512 127.941509,42.3027512 127.456141,42.1646122 L127.438533,42.1593951 C126.91885,42.0112756 126.565322,42.2682732 126.418131,42.790661 L126.201635,43.5571171 L127.787772,44.0087341 L128.0063,43.2338854 Z M124.401033,44.7280098 L125.076484,42.3333732 C125.308106,41.5149732 125.698658,40.9581073 126.20773,40.6802415 C126.641626,40.4366268 127.164243,40.3783317 127.778967,40.5534439 L127.822763,40.5659195 C128.724645,40.8224634 129.162379,41.4274171 129.301442,42.1630244 L131.856735,41.5358415 L131.357596,43.3037488 L129.184277,43.804361 L129.027379,44.3616805 L130.908123,44.8974512 L130.467906,46.4559951 L124.401033,44.7280098 Z" id="Fill-263" fill="#FFF8EB" mask="url(#mask-2)"></path>
                <polygon id="Fill-264" fill="#FFF8EB" mask="url(#mask-2)" points="130.683815 34.6932417 126.517101 36.2261539 126.738113 34.437832 129.130186 33.6693344 126.998631 32.3260515 127.216708 30.564949 130.866223 33.0732271 133.226691 33.3685588 133.027352 34.9858515"></polygon>
            </g>
        </g>
    </g>
</svg>